# xmcd
#
# Track frame offsets:
#	150
#	21180
#	56310
#	103125
#	129210
#	198617
#	244592
#
# Disc length: 3846 seconds
#
# Revision: 1
# Processed by: cddbd v1.5.2PL0 Copyright (c) Steve Scherf et al.
# Submitted via: audiograbber 1.83.01
#
DISCID=560f0407
DTITLE=David Geyra - The Art of Dance
DYEAR=1990
DGENRE=New Age
TTITLE0=Junkyard
TTITLE1=Windbells
TTITLE2=Gibberish
TTITLE3=The Drunk
TTITLE4=Pulse
TTITLE5=Dreamer
TTITLE6=Junkyard Finale
EXTD=YEAR: 1990
EXTT0=
EXTT1=
EXTT2=
EXTT3=
EXTT4=
EXTT5=
EXTT6=
PLAYORDER=
